Patient4_TMGait_0pt5_01_right_10_GRF.mot
version=1
nRows=65
nColumns=19
inDegrees=no
endheader
time	F1x	F1y	F1z	M1x	M1y	M1z	F2x	F2y	F2z	M2x	M2y	M2z	EC1x	EC1y	EC1z	EC2x	EC2y	EC2z
12.82	9.8396	779.8807	58.7175	-279.6478	-41.1864	577.8972	-0.054828	2.8112	-8.0713	2.9793	5.7728	0.72218	-0.0592	0.0182	-0.0073	-0.0462	0.0165	0.9585
12.8331	7.7487	771.9317	58.2775	-276.8583	-40.6051	570.0326	-0.22912	2.6792	-5.3426	2.3049	3.8014	1.2013	-0.0592	0.0182	-0.0073	-0.0462	0.0165	0.9585
12.8463	6.2085	763.07	57.7544	-273.6295	-39.8136	561.173	-0.34313	2.5572	-3.0938	1.7461	2.2149	1.5952	-0.0592	0.0182	-0.0073	-0.0462	0.0165	0.9585
12.8594	5.3531	754.0511	57.146	-270.2386	-38.8189	551.9123	-0.40958	2.4712	-1.4225	1.3354	1.0669	1.8943	-0.0592	0.0182	-0.0073	-0.0462	0.0165	0.9585
12.8726	5.1963	745.6475	56.4752	-266.9935	-37.6497	542.833	-0.45631	2.4367	-0.29932	1.0711	0.32344	2.1245	-0.0592	0.0182	-0.0073	-0.0462	0.0165	0.9585
12.8857	5.7001	738.4924	55.7816	-264.1602	-36.3437	534.3855	-0.48915	2.436	0.36447	0.92498	-0.091298	2.286	-0.0592	0.0182	-0.0073	-0.0462	0.0165	0.9585
12.8989	6.7845	733.0221	55.097	-261.9288	-34.9317	526.8811	-0.5281	2.4482	0.68918	0.85842	-0.2683	2.3929	-0.0592	0.0182	-0.0073	-0.0462	0.0165	0.9585
12.912	8.3691	729.4386	54.4571	-260.3985	-33.446	520.4487	-0.57156	2.4172	0.78182	0.82186	-0.2874	2.411	-0.0592	0.0182	-0.0073	-0.0462	0.0165	0.9585
12.9251	10.3699	727.7434	53.8778	-259.5869	-31.9036	515.0847	-0.62229	2.2703	0.73686	0.76422	-0.21705	2.2955	-0.0592	0.0182	-0.0073	-0.0462	0.0165	0.9585
12.9383	12.7173	727.7462	53.3811	-259.4369	-30.3244	510.6484	-0.68022	1.9159	0.6185	0.6321	-0.10144	1.9831	-0.0592	0.0182	-0.0073	-0.0462	0.0165	0.9585
12.9514	15.3659	729.1362	52.9554	-259.8385	-28.6963	506.9289	-0.73952	1.2507	0.4801	0.37412	0.021477	1.394	-0.0592	0.0182	-0.0073	-0.0462	0.0165	0.9585
12.9646	18.2872	731.5382	52.5922	-260.6494	-27.0137	503.6916	-0.79969	0.18145	0.35035	-0.054704	0.13414	0.46075	-0.0592	0.0182	-0.0073	-0.0462	0.0165	0.9585
12.9777	21.4742	734.5704	52.2664	-261.7162	-25.2543	500.7098	-0.83642	-1.3674	0.26042	-0.68686	0.20669	-0.88406	-0.0592	0.0182	-0.0073	-0.0462	0.0165	0.9585
12.9909	24.9128	737.8724	51.983	-262.8811	-23.425	497.8084	-0.83715	-3.3939	0.22131	-1.5215	0.22696	-2.6318	-0.0592	0.0182	-0.0073	-0.0462	0.0165	0.9585
13.004	28.5973	741.0997	51.7515	-263.9888	-21.5335	494.8278	-0.76249	-5.7755	0.25078	-2.5019	0.16342	-4.6882	-0.0592	0.0182	-0.0073	-0.0462	0.0165	0.9585
13.0171	32.4744	743.9116	51.6131	-264.8825	-19.6322	491.642	-0.56859	-8.1753	0.35962	-3.4848	-0.014279	-6.7758	-0.0592	0.0182	-0.0073	-0.0462	0.0165	0.9585
13.0303	36.4787	745.9493	51.5823	-265.4072	-17.7608	488.1048	-0.19684	-9.9687	0.57251	-4.206	-0.35513	-8.373	-0.0592	0.0182	-0.0073	-0.0462	0.0165	0.9585
13.0434	40.5121	746.8069	51.6582	-265.4005	-15.9673	484.048	0.4127	-10.1449	0.90659	-4.2444	-0.90127	-8.6264	-0.0592	0.0182	-0.0073	-0.0462	0.0165	0.9585
13.0566	44.4797	746.0119	51.7963	-264.6907	-14.2683	479.2383	1.3128	-7.2559	1.3765	-2.9967	-1.6842	-6.3067	-0.0592	0.0182	-0.0073	-0.0462	0.0165	0.9585
13.0697	48.3007	743.0749	51.9364	-263.114	-12.6691	473.4043	2.5339	0.57349	1.9618	0.3175	-2.6877	0.18911	-0.0592	0.0182	-0.0073	-0.0462	0.0165	0.9585
13.0829	51.9091	737.5434	51.9852	-260.533	-11.1391	466.2905	4.0303	15.5411	2.6044	6.6081	-3.8323	12.7606	-0.0592	0.0182	-0.0073	-0.0462	0.0165	0.9585
13.096	55.2946	728.996	51.8443	-256.8318	-9.6284	457.6301	5.621	39.8969	3.1678	16.8002	-4.9086	33.3482	-0.0592	0.0182	-0.0073	-0.0462	0.0165	0.9585
13.1091	58.4313	716.9919	51.384	-251.8949	-8.0619	447.1493	6.772	75.5141	3.4555	31.6537	-5.5204	63.6009	-0.0592	0.0182	-0.0073	-0.0462	0.0165	0.9585
13.1223	61.2737	700.942	50.4784	-245.56	-6.3807	434.4707	6.4704	123.0558	3.1735	51.4198	-4.9949	104.1529	-0.0592	0.0182	-0.0073	-0.0462	0.0165	0.9585
13.1354	63.6836	680.0828	48.9879	-237.6048	-4.5465	419.1382	3.3966	180.946	1.99	75.4125	-2.5164	153.774	-0.0592	0.0182	-0.0073	-0.0462	0.0165	0.9585
13.1486	65.4318	653.5695	46.8169	-227.7739	-2.5845	400.6798	-2.9193	244.7659	-0.37764	101.7632	2.3362	208.7902	-0.0592	0.0182	-0.0073	-0.0462	0.0165	0.9585
13.1617	66.2182	620.7473	43.9405	-215.8631	-0.5788	378.7624	-11.498	307.6451	-3.917	127.6261	9.1314	263.2731	-0.0592	0.0182	-0.0073	-0.0462	0.0165	0.9585
13.1749	65.7704	581.4859	40.4701	-201.8315	1.3061	353.3565	-20.7057	363.1042	-8.1345	150.3472	16.7364	311.4856	-0.0592	0.0182	-0.0073	-0.0462	0.0165	0.9585
13.188	63.9459	536.4195	36.5977	-185.8856	2.9132	324.8572	-29.0531	407.5922	-12.305	168.4878	23.8782	350.1844	-0.0592	0.0182	-0.0073	-0.0462	0.0165	0.9585
13.2011	60.7829	486.8677	32.5781	-168.4561	4.1061	294.0451	-35.584	440.5665	-15.8644	181.8485	29.659	378.8239	-0.0592	0.0182	-0.0073	-0.0462	0.0165	0.9585
13.2143	56.4502	434.5839	28.5876	-150.1237	4.8488	261.9242	-39.9642	463.7378	-18.4857	191.1518	33.6613	398.8643	-0.0592	0.0182	-0.0073	-0.0462	0.0165	0.9585
13.2274	51.1443	381.511	24.7357	-131.5401	5.1434	229.6173	-42.3118	480.0968	-20.1852	197.6286	35.9647	412.8733	-0.0592	0.0182	-0.0073	-0.0462	0.0165	0.9585
13.2406	45.0684	329.5341	21.0715	-113.3513	5.029	198.1948	-43.0199	493.0979	-21.3015	202.6774	37.0424	423.7997	-0.0592	0.0182	-0.0073	-0.0462	0.0165	0.9585
13.2537	38.4001	280.3204	17.6645	-96.1362	4.5232	168.6021	-42.582	506.0502	-22.3607	207.6269	37.5665	434.448	-0.0592	0.0182	-0.0073	-0.0462	0.0165	0.9585
13.2669	31.3742	235.1728	14.6056	-80.3525	3.666	141.5538	-41.5067	521.5712	-23.9057	213.5236	38.2229	447.0264	-0.0592	0.0182	-0.0073	-0.0462	0.0165	0.9585
13.28	24.2739	194.9074	12.03	-66.2901	2.4886	117.4778	-40.2933	541.2149	-26.3005	220.9981	39.5375	462.8153	-0.0592	0.0182	-0.0073	-0.0462	0.0165	0.9585
13.2931	17.3936	159.8048	10.0053	-54.055	1.0735	96.493	-39.3842	565.5004	-29.6471	230.2775	41.7835	482.2214	-0.0592	0.0182	-0.0073	-0.0462	0.0165	0.9585
13.3063	11.0057	129.6375	8.5268	-43.5798	-0.47814	78.4163	-39.0181	594.0709	-33.8055	241.2499	44.9435	504.8857	-0.0592	0.0182	-0.0073	-0.0462	0.0165	0.9585
13.3194	5.2913	103.8576	7.4855	-34.6837	-2.026	62.9196	-39.2451	625.8539	-38.5087	253.5186	48.8072	529.8479	-0.0592	0.0182	-0.0073	-0.0462	0.0165	0.9585
13.3326	0.39195	81.7943	6.7415	-27.1345	-3.4347	49.6112	-39.9334	659.2034	-43.4417	266.456	53.049	555.6753	-0.0592	0.0182	-0.0073	-0.0462	0.0165	0.9585
13.3457	-3.5795	62.8841	6.1237	-20.7259	-4.558	38.1817	-40.8547	692.1757	-48.2745	279.3083	57.2928	580.7044	-0.0592	0.0182	-0.0073	-0.0462	0.0165	0.9585
13.3589	-6.4719	46.7136	5.4967	-15.2994	-5.2698	28.3998	-41.7735	722.8532	-52.7143	291.3207	61.1911	603.3317	-0.0592	0.0182	-0.0073	-0.0462	0.0165	0.9585
13.372	-8.118	33.0333	4.7425	-10.7519	-5.4496	20.1257	-42.4662	749.588	-56.5612	301.8392	64.4815	622.211	-0.0592	0.0182	-0.0073	-0.0462	0.0165	0.9585
13.3851	-8.4151	21.713	3.819	-7.0217	-5.0503	13.2964	-42.765	771.2021	-59.674	310.3901	66.9752	636.4242	-0.0592	0.0182	-0.0073	-0.0462	0.0165	0.9585
13.3983	-7.4858	12.6893	2.7669	-4.0754	-4.1477	7.8622	-42.5127	787.0687	-61.9516	316.7174	68.5309	645.5194	-0.0592	0.0182	-0.0073	-0.0462	0.0165	0.9585
13.4114	-5.9246	6.0635	1.7467	-1.9303	-3.0356	3.8889	-41.5873	797.1191	-63.3161	320.7816	69.0434	649.523	-0.0592	0.0182	-0.0073	-0.0462	0.0165	0.9585
13.4246	-4.2306	1.6519	0.90384	-0.51763	-1.9791	1.272	-39.9276	801.7193	-63.7434	322.7153	68.4753	648.8299	-0.0592	0.0182	-0.0073	-0.0462	0.0165	0.9585
13.4377	-2.7156	-0.92215	0.26568	0.29168	-1.0967	-0.19371	-37.5508	801.5901	-63.295	322.7866	66.8845	644.1369	-0.0592	0.0182	-0.0073	-0.0462	0.0165	0.9585
13.4509	-1.5024	-2.1467	-0.15526	0.65913	-0.44949	-0.83883	-34.5917	797.6136	-62.1324	321.3246	64.4541	636.2982	-0.0592	0.0182	-0.0073	-0.0462	0.0165	0.9585
13.464	-0.63508	-2.4604	-0.41186	0.73135	-0.017403	-0.93192	-31.2885	790.6629	-60.4697	318.6559	61.4537	626.166	-0.0592	0.0182	-0.0073	-0.0462	0.0165	0.9585
13.4771	-0.077448	-2.225	-0.53363	0.63248	0.22538	-0.69918	-27.9276	781.6278	-58.4928	315.1195	58.1513	614.5737	-0.0592	0.0182	-0.0073	-0.0462	0.0165	0.9585
13.4903	0.22135	-1.7258	-0.5731	0.45583	0.33436	-0.32389	-24.7825	771.4478	-56.353	311.0842	54.7868	602.348	-0.0592	0.0182	-0.0073	-0.0462	0.0165	0.9585
13.5034	0.30832	-1.1668	-0.55218	0.26801	0.33758	0.060865	-22.0623	761.0417	-54.1842	306.9173	51.5651	590.2427	-0.0592	0.0182	-0.0073	-0.0462	0.0165	0.9585
13.5166	0.25369	-0.69323	-0.50297	0.11476	0.27873	0.3455	-19.8868	751.2348	-52.12	302.9525	48.6519	578.8882	-0.0592	0.0182	-0.0073	-0.0462	0.0165	0.9585
13.5297	0.084274	-0.39744	-0.4396	0.025957	0.17145	0.4845	-18.2574	742.7203	-50.2708	299.4759	46.1418	568.7549	-0.0592	0.0182	-0.0073	-0.0462	0.0165	0.9585
13.5429	-0.15186	-0.35651	-0.38232	0.026488	0.04367	0.40735	-17.0549	736.0608	-48.7294	296.7234	44.0642	560.1847	-0.0592	0.0182	-0.0073	-0.0462	0.0165	0.9585
13.556	-0.43436	-0.60752	-0.33217	0.13292	-0.10036	0.08896	-16.0824	731.6376	-47.5611	294.8602	42.3925	553.3531	-0.0592	0.0182	-0.0073	-0.0462	0.0165	0.9585
13.5691	-0.71991	-1.198	-0.30032	0.36241	-0.23465	-0.52119	-15.1246	729.5998	-46.8184	293.9583	41.0741	548.2436	-0.0592	0.0182	-0.0073	-0.0462	0.0165	0.9585
13.5823	-0.95087	-2.1465	-0.28515	0.72395	-0.33578	-1.4449	-13.9848	729.8621	-46.5194	293.9932	40.034	544.6876	-0.0592	0.0182	-0.0073	-0.0462	0.0165	0.9585
13.5954	-1.0522	-3.4165	-0.29451	1.2057	-0.36348	-2.6522	-12.5107	732.0941	-46.6402	294.8412	39.1857	542.3672	-0.0592	0.0182	-0.0073	-0.0462	0.0165	0.9585
13.6086	-0.88594	-4.9136	-0.32299	1.7696	-0.27123	-4.0683	-10.6187	735.7216	-47.0973	296.2775	38.422	540.8263	-0.0592	0.0182	-0.0073	-0.0462	0.0165	0.9585
13.6217	-0.2976	-6.4019	-0.381	2.3254	0.00946	-5.4742	-8.2664	739.9436	-47.7901	297.9808	37.6456	539.4779	-0.0592	0.0182	-0.0073	-0.0462	0.0165	0.9585
13.6349	0.9172	-7.4699	-0.46837	2.7182	0.55286	-6.5125	-5.465	743.8294	-48.6158	299.5705	36.7788	537.6929	-0.0592	0.0182	-0.0073	-0.0462	0.0165	0.9585
13.648	2.9447	-7.4677	-0.59796	2.7074	1.4422	-6.6061	-2.2483	746.5071	-49.5017	300.6809	35.7755	534.9221	-0.0592	0.0182	-0.0073	-0.0462	0.0165	0.9585
13.6611	5.9506	-5.4769	-0.77092	1.955	2.7384	-4.9483	1.3255	747.355	-50.3887	301.0372	34.6073	530.8279	-0.0592	0.0182	-0.0073	-0.0462	0.0165	0.9585
